<svg width="38" height="30" viewBox="0 0 38 30" fill="none" xmlns="http://www.w3.org/2000/svg">
<path fill-rule="evenodd" clip-rule="evenodd" d="M37.5098 26.6667C37.5098 27.5507 37.1586 28.3986 36.5335 29.0237C35.9084 29.6488 35.0605 30 34.1765 30H4.17647C3.29242 30 2.44457 29.6488 1.81945 29.0237C1.19433 28.3986 0.84314 27.5507 0.84314 26.6667V8.33333C0.84314 7.44928 1.19433 6.60143 1.81945 5.97631C2.44457 5.35119 3.29242 5 4.17647 5H10.8431L14.1765 0H24.1765L27.5098 5H34.1765C35.0605 5 35.9084 5.35119 36.5335 5.97631C37.1586 6.60143 37.5098 7.44928 37.5098 8.33333V26.6667ZM17.9997 12.584C18.7459 12.4151 19.5227 12.4381 20.2576 12.6507C20.9926 12.8632 21.6617 13.2585 22.2025 13.7997C22.2084 13.8056 22.2144 13.8114 22.2205 13.8171L23.4963 15.0159H21.9631C21.5213 15.0159 21.1631 15.374 21.1631 15.8159C21.1631 16.2577 21.5213 16.6159 21.9631 16.6159H25.5159C25.9577 16.6159 26.3159 16.2577 26.3159 15.8159V12.2631C26.3159 11.8213 25.9577 11.4631 25.5159 11.4631C25.074 11.4631 24.7159 11.8213 24.7159 12.2631V13.9663L23.325 12.6594C22.5947 11.9318 21.6926 11.4002 20.7022 11.1137C19.7076 10.826 18.6564 10.7949 17.6466 11.0234C16.6368 11.2519 15.7013 11.7325 14.9274 12.4203C14.1536 13.1081 13.5666 13.9807 13.2212 14.9568C13.0738 15.3733 13.292 15.8304 13.7085 15.9778C14.125 16.1252 14.5821 15.907 14.7295 15.4905C14.9847 14.7693 15.4185 14.1244 15.9904 13.6162C16.5622 13.1079 17.2535 12.7528 17.9997 12.584ZM18.0954 21.9177C18.8304 22.1303 19.6072 22.1533 20.3534 21.9844C21.0996 21.8156 21.7909 21.4605 22.3627 20.9522C22.9345 20.4439 23.3683 19.7991 23.6235 19.0779C23.7709 18.6614 24.2281 18.4432 24.6446 18.5906C25.0611 18.738 25.2793 19.1951 25.1319 19.6116C24.7865 20.5877 24.1995 21.4603 23.4256 22.1481C22.6518 22.8359 21.7163 23.3165 20.7065 23.545C19.6967 23.7735 18.6454 23.7424 17.6508 23.4547C16.6604 23.1682 15.7583 22.6366 15.028 21.909L13.6372 20.6021V22.3053C13.6372 22.7471 13.279 23.1053 12.8372 23.1053C12.3953 23.1053 12.0372 22.7471 12.0372 22.3053V18.7525C12.0372 18.3107 12.3953 17.9525 12.8372 17.9525H16.3899C16.8317 17.9525 17.1899 18.3107 17.1899 18.7525C17.1899 19.1944 16.8317 19.5525 16.3899 19.5525H14.8568L16.1325 20.7513C16.1386 20.757 16.1446 20.7628 16.1505 20.7687C16.6914 21.3099 17.3605 21.7051 18.0954 21.9177Z" fill="white"/>
</svg>
